# xmcd
#
# Track frame offsets:
#	150
#	17031
#	38679
#	57484
#	77296
#	96116
#	124439
#	140830
#	173179
#	206654
#
# Disc length: 3128 seconds
#
# Revision: 0
# Processed by: cddbd v1.5.2PL0 Copyright (c) Steve Scherf et al.
# Submitted via: dBpowerAMP V4.0
#
DISCID=880c360a
DTITLE=attitrak - isti
DYEAR=2008
DGENRE=Dance Hall
TTITLE0=atti01
TTITLE1=atti2
TTITLE2=atti03
TTITLE3=atti04
TTITLE4=atti05
TTITLE5=atti06
TTITLE6=atti07
TTITLE7=atti08
TTITLE8=atti09
TTITLE9=atti10
EXTD=
EXTT0=
EXTT1=
EXTT2=
EXTT3=
EXTT4=
EXTT5=
EXTT6=
EXTT7=
EXTT8=
EXTT9=
PLAYORDER=
